<svg viewBox="0 0 14 14" xmlns="http://www.w3.org/2000/svg" xmlns:xlink="http://www.w3.org/1999/xlink"><title>coupon</title><defs><path d="M0 5V1.002C0 .45.447 0 1 0h11c.553 0 1 .456 1 1.002V5c-.552 0-1 .435-1 .97 0 .537.448.97 1 .97V11c0 .55-.447 1-1 1H1c-.553 0-1-.456-1-1.002V6.94c.552 0 1-.433 1-.97C1 5.436.552 5 0 5z" id="a"/><mask id="c" x="0" y="0" width="13" height="12" fill="#fff"><use xlink:href="#a"/></mask><path id="b" d="M6 1h1v11H6z"/><mask id="d" x="0" y="0" width="1" height="11" fill="#fff"><use xlink:href="#b"/></mask></defs><g transform="translate(0 1)" stroke="#259" stroke-width="2" fill="none" fill-rule="evenodd"><use mask="url(#c)" transform="matrix(-1 0 0 1 13 0)" xlink:href="#a"/><use mask="url(#d)" xlink:href="#b"/></g></svg>